<svg width="25" height="24" viewBox="0 0 25 24" fill="none" xmlns="http://www.w3.org/2000/svg">
<path fill-rule="evenodd" clip-rule="evenodd" d="M6.60881 5.64299C6.21829 6.03352 6.21829 6.66668 6.60881 7.0572L11.5586 12.007L6.60892 16.9567C6.21839 17.3473 6.21839 17.9804 6.60892 18.3709C6.99944 18.7615 7.63261 18.7615 8.02313 18.3709L12.9728 13.4212L17.9225 18.3709C18.313 18.7614 18.9462 18.7614 19.3367 18.3709C19.7273 17.9804 19.7273 17.3472 19.3367 16.9567L14.3871 12.007L19.3368 7.05723C19.7274 6.66671 19.7274 6.03354 19.3368 5.64302C18.9463 5.2525 18.3131 5.2525 17.9226 5.64302L12.9728 10.5928L8.02302 5.64299C7.6325 5.25247 6.99934 5.25247 6.60881 5.64299Z" fill="#323232"/>
</svg>
