<svg width="100%" height="100%" viewBox="0 0 32 32" fill="none" xmlns="http://www.w3.org/2000/svg">
<path fill-rule="evenodd" clip-rule="evenodd" d="M10.6264 17.4538L5.71079 15.6192C5.21152 15.4321 5.20719 14.7272 5.70503 14.5352L25.8789 6.75275C26.3066 6.58734 26.7479 6.96203 26.6547 7.41116L23.0344 24.8256C22.9491 25.2368 22.467 25.4233 22.1267 25.1759L17.1846 21.5879C16.8845 21.37 16.4754 21.3817 16.1882 21.6157L13.4481 23.8494C13.13 24.1095 12.6508 23.9646 12.5291 23.5727L10.6264 17.4538ZM21.8294 10.5602L12.2224 16.4772C11.8542 16.7045 11.6809 17.1491 11.7998 17.5654L12.8385 21.2152C12.9123 21.4738 13.2877 21.4473 13.3235 21.1801L13.5935 19.1786C13.6444 18.8017 13.8242 18.4546 14.1029 18.1952L22.0314 10.8252C22.1797 10.6877 22.0021 10.4542 21.8294 10.5602Z" fill="currentColor"/>
</svg>
