<svg width="24" height="24" viewBox="0 0 24 24" fill="none" xmlns="http://www.w3.org/2000/svg">
    <path fill-rule="evenodd" clip-rule="evenodd"
          d="M19.4518 7.67713C19.5689 7.28681 19.4518 7 18.8947 7H17.0526C16.5843 7 16.3683 7.24776 16.2512 7.52097C16.2512 7.52097 15.3144 9.80433 13.9874 11.2875C13.558 11.7169 13.3629 11.8535 13.1287 11.8535C13.0116 11.8535 12.8421 11.7169 12.8421 11.3266V7.67714C12.8421 7.20875 12.7061 7 12.3158 7H9.42106C9.12836 7 8.95232 7.21739 8.95232 7.42342C8.95232 7.86744 9.61582 7.96984 9.68421 9.21887V11.9316C9.68421 12.5263 9.57681 12.6341 9.34261 12.6341C8.71813 12.6341 7.19907 10.3406 6.29813 7.71615C6.12157 7.20605 5.94448 7 5.47369 7H3.63158C3.10527 7 3 7.24776 3 7.52097C3 8.00888 3.62451 10.4289 5.90784 13.6294C7.43005 15.8152 9.57474 17 11.5263 17C12.6973 17 12.8421 16.7368 12.8421 16.2836V14.6316C12.8421 14.1053 12.953 14.0002 13.3238 14.0002C13.597 14.0002 14.0654 14.1368 15.1583 15.1907C16.4073 16.4397 16.6132 17 17.3158 17H19.1579C19.6842 17 19.9474 16.7368 19.7956 16.2175C19.6294 15.6999 19.0331 14.949 18.2418 14.0588C17.8125 13.5514 17.1685 13.0049 16.9733 12.7317C16.7001 12.3804 16.7781 12.2243 16.9733 11.912C16.9733 11.912 19.2176 8.75048 19.4518 7.67713V7.67713Z"
          fill="currentColor"/>
</svg>
