<svg width="24" height="24" viewBox="0 0 24 24" fill="none" xmlns="http://www.w3.org/2000/svg">
    <path fill-rule="evenodd" clip-rule="evenodd" d="M18.2026 6.33536C18.8886 6.51991 19.4289 7.06374 19.6123 7.75425C19.9455 9.00584 19.9455 11.6172 19.9455 11.6172C19.9455 11.6172 19.9455 14.2285 19.6123 15.4801C19.4289 16.1706 18.8886 16.6918 18.2026 16.8763C16.959 17.2117 11.9728 17.2117 11.9728 17.2117C11.9728 17.2117 6.98648 17.2117 5.74295 16.8763C5.05691 16.6918 4.51658 16.1706 4.3332 15.4801C4 14.2285 4 11.6172 4 11.6172C4 11.6172 4 9.00584 4.3332 7.75425C4.51658 7.06374 5.05691 6.51994 5.74295 6.33536C6.98648 6 11.9728 6 11.9728 6C11.9728 6 16.9591 6 18.2026 6.33536ZM14.5095 11.6172L10.342 9.24628V13.9881L14.5095 11.6172Z" fill="currentColor"/>
</svg>
